<svg width="100" height="50" viewBox="0 0 150 100" fill="none" xmlns="http://www.w3.org/2000/svg">
<rect width="150" height="100" fill="white"/>
<line x1="32" y1="97" x2="32" y2="3" stroke="black" stroke-width="6" stroke-linecap="round"/>
<line x1="66" y1="97" x2="66" y2="3" stroke="black" stroke-width="6" stroke-linecap="round"/>
<line x1="3.00383" y1="32.0038" x2="97.0038" y2="32.124" stroke="black" stroke-width="6" stroke-linecap="round"/>
<line x1="3" y1="68" x2="97" y2="68" stroke="black" stroke-width="6" stroke-linecap="round"/>
<path d="M121.076 55.5684L124.74 44.207H127.324L122.02 59H120.092L114.732 44.207H117.316L121.076 55.5684ZM138.371 55.0762C138.371 54.3926 138.111 53.8639 137.592 53.4902C137.081 53.1074 136.184 52.7793 134.898 52.5059C133.622 52.2324 132.606 51.9043 131.85 51.5215C131.102 51.1387 130.546 50.6829 130.182 50.1543C129.826 49.6257 129.648 48.9967 129.648 48.2676C129.648 47.0553 130.159 46.0299 131.18 45.1914C132.21 44.3529 133.522 43.9336 135.117 43.9336C136.794 43.9336 138.152 44.3665 139.191 45.2324C140.24 46.0983 140.764 47.2057 140.764 48.5547H138.221C138.221 47.862 137.924 47.265 137.332 46.7637C136.749 46.2624 136.01 46.0117 135.117 46.0117C134.197 46.0117 133.477 46.2122 132.957 46.6133C132.438 47.0143 132.178 47.5384 132.178 48.1855C132.178 48.7962 132.419 49.2565 132.902 49.5664C133.385 49.8763 134.256 50.1725 135.514 50.4551C136.781 50.7376 137.806 51.0749 138.59 51.4668C139.374 51.8587 139.952 52.3327 140.326 52.8887C140.709 53.4355 140.9 54.1055 140.9 54.8984C140.9 56.2201 140.372 57.2819 139.314 58.084C138.257 58.877 136.885 59.2734 135.199 59.2734C134.014 59.2734 132.966 59.0638 132.055 58.6445C131.143 58.2253 130.428 57.6419 129.908 56.8945C129.398 56.138 129.143 55.3223 129.143 54.4473H131.672C131.717 55.2949 132.055 55.9694 132.684 56.4707C133.322 56.9629 134.16 57.209 135.199 57.209C136.156 57.209 136.922 57.0176 137.496 56.6348C138.079 56.2428 138.371 55.7233 138.371 55.0762ZM144.25 57.6738C144.25 57.2363 144.378 56.8717 144.633 56.5801C144.897 56.2884 145.289 56.1426 145.809 56.1426C146.328 56.1426 146.72 56.2884 146.984 56.5801C147.258 56.8717 147.395 57.2363 147.395 57.6738C147.395 58.0931 147.258 58.444 146.984 58.7266C146.72 59.0091 146.328 59.1504 145.809 59.1504C145.289 59.1504 144.897 59.0091 144.633 58.7266C144.378 58.444 144.25 58.0931 144.25 57.6738Z" fill="black"/>
</svg>
