<svg width="300" height="50" viewBox="0 0 300 40" fill="none" xmlns="http://www.w3.org/2000/svg">
<path d="M18.5176 6.09375V19.6289C18.5085 21.5065 17.916 23.0423 16.7402 24.2363C15.5736 25.4303 13.9876 26.1003 11.9824 26.2461L11.2852 26.2734C9.10677 26.2734 7.37044 25.6855 6.07617 24.5098C4.7819 23.334 4.12565 21.7161 4.10742 19.6562V6.09375H6.70508V19.5742C6.70508 21.0143 7.10156 22.1354 7.89453 22.9375C8.6875 23.7305 9.81771 24.127 11.2852 24.127C12.7708 24.127 13.9056 23.7305 14.6895 22.9375C15.4824 22.1445 15.8789 21.028 15.8789 19.5879V6.09375H18.5176ZM25.0117 26H22.4824V5H25.0117V26ZM32.5039 7.625V11.207H35.2656V13.1621H32.5039V22.3359C32.5039 22.9284 32.627 23.375 32.873 23.6758C33.1191 23.9674 33.5384 24.1133 34.1309 24.1133C34.4225 24.1133 34.8236 24.0586 35.334 23.9492V26C34.6686 26.1823 34.0215 26.2734 33.3926 26.2734C32.2624 26.2734 31.4102 25.9316 30.8359 25.248C30.2617 24.5645 29.9746 23.5938 29.9746 22.3359V13.1621H27.2812V11.207H29.9746V7.625H32.5039ZM40.9805 26H38.4512V11.207H40.9805V26ZM38.2461 7.2832C38.2461 6.87305 38.3691 6.52669 38.6152 6.24414C38.8704 5.96159 39.2441 5.82031 39.7363 5.82031C40.2285 5.82031 40.6022 5.96159 40.8574 6.24414C41.1126 6.52669 41.2402 6.87305 41.2402 7.2832C41.2402 7.69336 41.1126 8.03516 40.8574 8.30859C40.6022 8.58203 40.2285 8.71875 39.7363 8.71875C39.2441 8.71875 38.8704 8.58203 38.6152 8.30859C38.3691 8.03516 38.2461 7.69336 38.2461 7.2832ZM47.4199 11.207L47.4883 12.8477C48.5729 11.5716 50.0358 10.9336 51.877 10.9336C53.946 10.9336 55.3542 11.7266 56.1016 13.3125C56.5938 12.6016 57.2318 12.0273 58.0156 11.5898C58.8086 11.1523 59.7428 10.9336 60.8184 10.9336C64.0632 10.9336 65.7129 12.6517 65.7676 16.0879V26H63.2383V16.2383C63.2383 15.181 62.9967 14.3926 62.5137 13.873C62.0306 13.3444 61.2194 13.0801 60.0801 13.0801C59.1413 13.0801 58.362 13.3626 57.7422 13.9277C57.1224 14.4837 56.7624 15.2357 56.6621 16.1836V26H54.1191V16.3066C54.1191 14.1556 53.0664 13.0801 50.9609 13.0801C49.3021 13.0801 48.1673 13.7865 47.5566 15.1992V26H45.0273V11.207H47.4199ZM78.7285 26C78.5827 25.7083 78.4642 25.1888 78.373 24.4414C77.1973 25.6628 75.7936 26.2734 74.1621 26.2734C72.7038 26.2734 71.5052 25.8633 70.5664 25.043C69.6367 24.2135 69.1719 23.1654 69.1719 21.8984C69.1719 20.3581 69.7552 19.1641 70.9219 18.3164C72.0977 17.4596 73.7474 17.0312 75.8711 17.0312H78.332V15.8691C78.332 14.985 78.0677 14.2832 77.5391 13.7637C77.0104 13.235 76.2311 12.9707 75.2012 12.9707C74.2988 12.9707 73.5423 13.1986 72.9316 13.6543C72.321 14.11 72.0156 14.6615 72.0156 15.3086H69.4727C69.4727 14.5703 69.7324 13.8594 70.252 13.1758C70.7806 12.4831 71.4915 11.9362 72.3848 11.5352C73.2871 11.1341 74.276 10.9336 75.3516 10.9336C77.056 10.9336 78.3913 11.362 79.3574 12.2188C80.3236 13.0664 80.8249 14.2376 80.8613 15.7324V22.541C80.8613 23.8991 81.0345 24.9792 81.3809 25.7812V26H78.7285ZM74.5312 24.0723C75.3242 24.0723 76.0762 23.8672 76.7871 23.457C77.498 23.0469 78.013 22.5137 78.332 21.8574V18.8223H76.3496C73.2507 18.8223 71.7012 19.7292 71.7012 21.543C71.7012 22.3359 71.9655 22.9557 72.4941 23.4023C73.0228 23.849 73.7018 24.0723 74.5312 24.0723ZM88.2578 7.625V11.207H91.0195V13.1621H88.2578V22.3359C88.2578 22.9284 88.3809 23.375 88.627 23.6758C88.873 23.9674 89.2923 24.1133 89.8848 24.1133C90.1764 24.1133 90.5775 24.0586 91.0879 23.9492V26C90.4225 26.1823 89.7754 26.2734 89.1465 26.2734C88.0163 26.2734 87.1641 25.9316 86.5898 25.248C86.0156 24.5645 85.7285 23.5938 85.7285 22.3359V13.1621H83.0352V11.207H85.7285V7.625H88.2578ZM100.125 26.2734C98.1198 26.2734 96.4883 25.6172 95.2305 24.3047C93.9727 22.9831 93.3438 21.2194 93.3438 19.0137V18.5488C93.3438 17.0814 93.6217 15.7734 94.1777 14.625C94.7428 13.4674 95.5267 12.5651 96.5293 11.918C97.541 11.2617 98.6348 10.9336 99.8105 10.9336C101.734 10.9336 103.229 11.5671 104.295 12.834C105.361 14.1009 105.895 15.9147 105.895 18.2754V19.3281H95.873C95.9095 20.7865 96.3333 21.9668 97.1445 22.8691C97.9648 23.7624 99.0039 24.209 100.262 24.209C101.155 24.209 101.911 24.0267 102.531 23.6621C103.151 23.2975 103.693 22.8145 104.158 22.2129L105.703 23.416C104.464 25.321 102.604 26.2734 100.125 26.2734ZM99.8105 13.0117C98.7897 13.0117 97.9329 13.3854 97.2402 14.1328C96.5475 14.8711 96.1191 15.9102 95.9551 17.25H103.365V17.0586C103.292 15.7734 102.946 14.7799 102.326 14.0781C101.706 13.3672 100.868 13.0117 99.8105 13.0117ZM129.383 8.25391H122.984V26H120.373V8.25391H113.988V6.09375H129.383V8.25391ZM134.688 26H132.158V11.207H134.688V26ZM131.953 7.2832C131.953 6.87305 132.076 6.52669 132.322 6.24414C132.577 5.96159 132.951 5.82031 133.443 5.82031C133.936 5.82031 134.309 5.96159 134.564 6.24414C134.82 6.52669 134.947 6.87305 134.947 7.2832C134.947 7.69336 134.82 8.03516 134.564 8.30859C134.309 8.58203 133.936 8.71875 133.443 8.71875C132.951 8.71875 132.577 8.58203 132.322 8.30859C132.076 8.03516 131.953 7.69336 131.953 7.2832ZM144.682 24.209C145.584 24.209 146.372 23.9355 147.047 23.3887C147.721 22.8418 148.095 22.1582 148.168 21.3379H150.561C150.515 22.1855 150.223 22.9922 149.686 23.7578C149.148 24.5234 148.428 25.1341 147.525 25.5898C146.632 26.0456 145.684 26.2734 144.682 26.2734C142.667 26.2734 141.063 25.6035 139.869 24.2637C138.684 22.9147 138.092 21.0736 138.092 18.7402V18.3164C138.092 16.8763 138.356 15.5957 138.885 14.4746C139.413 13.3535 140.17 12.4831 141.154 11.8633C142.148 11.2435 143.319 10.9336 144.668 10.9336C146.327 10.9336 147.703 11.4303 148.797 12.4238C149.9 13.4173 150.488 14.707 150.561 16.293H148.168C148.095 15.3359 147.73 14.5521 147.074 13.9414C146.427 13.3216 145.625 13.0117 144.668 13.0117C143.383 13.0117 142.385 13.4766 141.674 14.4062C140.972 15.3268 140.621 16.6621 140.621 18.4121V18.8906C140.621 20.5951 140.972 21.9076 141.674 22.8281C142.376 23.7487 143.378 24.209 144.682 24.209ZM173.953 8.25391H167.555V26H164.943V8.25391H158.559V6.09375H173.953V8.25391ZM184.084 26C183.938 25.7083 183.82 25.1888 183.729 24.4414C182.553 25.6628 181.149 26.2734 179.518 26.2734C178.059 26.2734 176.861 25.8633 175.922 25.043C174.992 24.2135 174.527 23.1654 174.527 21.8984C174.527 20.3581 175.111 19.1641 176.277 18.3164C177.453 17.4596 179.103 17.0312 181.227 17.0312H183.688V15.8691C183.688 14.985 183.423 14.2832 182.895 13.7637C182.366 13.235 181.587 12.9707 180.557 12.9707C179.654 12.9707 178.898 13.1986 178.287 13.6543C177.676 14.11 177.371 14.6615 177.371 15.3086H174.828C174.828 14.5703 175.088 13.8594 175.607 13.1758C176.136 12.4831 176.847 11.9362 177.74 11.5352C178.643 11.1341 179.632 10.9336 180.707 10.9336C182.411 10.9336 183.747 11.362 184.713 12.2188C185.679 13.0664 186.18 14.2376 186.217 15.7324V22.541C186.217 23.8991 186.39 24.9792 186.736 25.7812V26H184.084ZM179.887 24.0723C180.68 24.0723 181.432 23.8672 182.143 23.457C182.854 23.0469 183.368 22.5137 183.688 21.8574V18.8223H181.705C178.606 18.8223 177.057 19.7292 177.057 21.543C177.057 22.3359 177.321 22.9557 177.85 23.4023C178.378 23.849 179.057 24.0723 179.887 24.0723ZM196.115 24.209C197.018 24.209 197.806 23.9355 198.48 23.3887C199.155 22.8418 199.529 22.1582 199.602 21.3379H201.994C201.949 22.1855 201.657 22.9922 201.119 23.7578C200.581 24.5234 199.861 25.1341 198.959 25.5898C198.066 26.0456 197.118 26.2734 196.115 26.2734C194.101 26.2734 192.497 25.6035 191.303 24.2637C190.118 22.9147 189.525 21.0736 189.525 18.7402V18.3164C189.525 16.8763 189.79 15.5957 190.318 14.4746C190.847 13.3535 191.604 12.4831 192.588 11.8633C193.581 11.2435 194.753 10.9336 196.102 10.9336C197.76 10.9336 199.137 11.4303 200.23 12.4238C201.333 13.4173 201.921 14.707 201.994 16.293H199.602C199.529 15.3359 199.164 14.5521 198.508 13.9414C197.861 13.3216 197.059 13.0117 196.102 13.0117C194.816 13.0117 193.818 13.4766 193.107 14.4062C192.406 15.3268 192.055 16.6621 192.055 18.4121V18.8906C192.055 20.5951 192.406 21.9076 193.107 22.8281C193.809 23.7487 194.812 24.209 196.115 24.209ZM225.387 8.25391H218.988V26H216.377V8.25391H209.992V6.09375H225.387V8.25391ZM225.906 18.4668C225.906 17.0176 226.189 15.7142 226.754 14.5566C227.328 13.3991 228.121 12.5059 229.133 11.877C230.154 11.248 231.316 10.9336 232.619 10.9336C234.633 10.9336 236.26 11.6309 237.5 13.0254C238.749 14.4199 239.373 16.2747 239.373 18.5898V18.7676C239.373 20.2077 239.095 21.502 238.539 22.6504C237.992 23.7897 237.204 24.6784 236.174 25.3164C235.153 25.9544 233.977 26.2734 232.646 26.2734C230.641 26.2734 229.014 25.5762 227.766 24.1816C226.526 22.7871 225.906 20.9414 225.906 18.6445V18.4668ZM228.449 18.7676C228.449 20.4082 228.827 21.7253 229.584 22.7188C230.35 23.7122 231.37 24.209 232.646 24.209C233.932 24.209 234.952 23.7077 235.709 22.7051C236.465 21.6934 236.844 20.2806 236.844 18.4668C236.844 16.8444 236.456 15.5319 235.682 14.5293C234.916 13.5176 233.895 13.0117 232.619 13.0117C231.37 13.0117 230.363 13.5085 229.598 14.502C228.832 15.4954 228.449 16.9173 228.449 18.7676ZM248.684 26.2734C246.678 26.2734 245.047 25.6172 243.789 24.3047C242.531 22.9831 241.902 21.2194 241.902 19.0137V18.5488C241.902 17.0814 242.18 15.7734 242.736 14.625C243.301 13.4674 244.085 12.5651 245.088 11.918C246.1 11.2617 247.193 10.9336 248.369 10.9336C250.292 10.9336 251.787 11.5671 252.854 12.834C253.92 14.1009 254.453 15.9147 254.453 18.2754V19.3281H244.432C244.468 20.7865 244.892 21.9668 245.703 22.8691C246.523 23.7624 247.562 24.209 248.82 24.209C249.714 24.209 250.47 24.0267 251.09 23.6621C251.71 23.2975 252.252 22.8145 252.717 22.2129L254.262 23.416C253.022 25.321 251.163 26.2734 248.684 26.2734ZM248.369 13.0117C247.348 13.0117 246.492 13.3854 245.799 14.1328C245.106 14.8711 244.678 15.9102 244.514 17.25H251.924V17.0586C251.851 15.7734 251.505 14.7799 250.885 14.0781C250.265 13.3672 249.426 13.0117 248.369 13.0117ZM269.219 22.5684L272.883 11.207H275.467L270.162 26H268.234L262.875 11.207H265.459L269.219 22.5684ZM286.514 22.0762C286.514 21.3926 286.254 20.8639 285.734 20.4902C285.224 20.1074 284.326 19.7793 283.041 19.5059C281.765 19.2324 280.749 18.9043 279.992 18.5215C279.245 18.1387 278.689 17.6829 278.324 17.1543C277.969 16.6257 277.791 15.9967 277.791 15.2676C277.791 14.0553 278.301 13.0299 279.322 12.1914C280.352 11.3529 281.665 10.9336 283.26 10.9336C284.937 10.9336 286.295 11.3665 287.334 12.2324C288.382 13.0983 288.906 14.2057 288.906 15.5547H286.363C286.363 14.862 286.067 14.265 285.475 13.7637C284.891 13.2624 284.153 13.0117 283.26 13.0117C282.339 13.0117 281.619 13.2122 281.1 13.6133C280.58 14.0143 280.32 14.5384 280.32 15.1855C280.32 15.7962 280.562 16.2565 281.045 16.5664C281.528 16.8763 282.398 17.1725 283.656 17.4551C284.923 17.7376 285.949 18.0749 286.732 18.4668C287.516 18.8587 288.095 19.3327 288.469 19.8887C288.852 20.4355 289.043 21.1055 289.043 21.8984C289.043 23.2201 288.514 24.2819 287.457 25.084C286.4 25.877 285.028 26.2734 283.342 26.2734C282.157 26.2734 281.109 26.0638 280.197 25.6445C279.286 25.2253 278.57 24.6419 278.051 23.8945C277.54 23.138 277.285 22.3223 277.285 21.4473H279.814C279.86 22.2949 280.197 22.9694 280.826 23.4707C281.464 23.9629 282.303 24.209 283.342 24.209C284.299 24.209 285.064 24.0176 285.639 23.6348C286.222 23.2428 286.514 22.7233 286.514 22.0762ZM292.393 24.6738C292.393 24.2363 292.52 23.8717 292.775 23.5801C293.04 23.2884 293.432 23.1426 293.951 23.1426C294.471 23.1426 294.863 23.2884 295.127 23.5801C295.4 23.8717 295.537 24.2363 295.537 24.6738C295.537 25.0931 295.4 25.444 295.127 25.7266C294.863 26.0091 294.471 26.1504 293.951 26.1504C293.432 26.1504 293.04 26.0091 292.775 25.7266C292.52 25.444 292.393 25.0931 292.393 24.6738Z" fill="black"/>
</svg>
