<svg width="100" height="50" viewBox="0 0 125 100" fill="none" xmlns="http://www.w3.org/2000/svg">
<rect width="150" height="100" fill="white"/>
<line x1="32" y1="97" x2="32" y2="3" stroke="black" stroke-width="6" stroke-linecap="round"/>
<line x1="66" y1="97" x2="66" y2="3" stroke="black" stroke-width="6" stroke-linecap="round"/>
<line x1="3.00383" y1="32.0038" x2="97.0038" y2="32.124" stroke="black" stroke-width="6" stroke-linecap="round"/>
<line x1="3" y1="68" x2="97" y2="68" stroke="black" stroke-width="6" stroke-linecap="round"/>
<path d="M121.076 52.5684L124.74 41.207H127.324L122.02 56H120.092L114.732 41.207H117.316L121.076 52.5684ZM138.371 52.0762C138.371 51.3926 138.111 50.8639 137.592 50.4902C137.081 50.1074 136.184 49.7793 134.898 49.5059C133.622 49.2324 132.606 48.9043 131.85 48.5215C131.102 48.1387 130.546 47.6829 130.182 47.1543C129.826 46.6257 129.648 45.9967 129.648 45.2676C129.648 44.0553 130.159 43.0299 131.18 42.1914C132.21 41.3529 133.522 40.9336 135.117 40.9336C136.794 40.9336 138.152 41.3665 139.191 42.2324C140.24 43.0983 140.764 44.2057 140.764 45.5547H138.221C138.221 44.862 137.924 44.265 137.332 43.7637C136.749 43.2624 136.01 43.0117 135.117 43.0117C134.197 43.0117 133.477 43.2122 132.957 43.6133C132.438 44.0143 132.178 44.5384 132.178 45.1855C132.178 45.7962 132.419 46.2565 132.902 46.5664C133.385 46.8763 134.256 47.1725 135.514 47.4551C136.781 47.7376 137.806 48.0749 138.59 48.4668C139.374 48.8587 139.952 49.3327 140.326 49.8887C140.709 50.4355 140.9 51.1055 140.9 51.8984C140.9 53.2201 140.372 54.2819 139.314 55.084C138.257 55.877 136.885 56.2734 135.199 56.2734C134.014 56.2734 132.966 56.0638 132.055 55.6445C131.143 55.2253 130.428 54.6419 129.908 53.8945C129.398 53.138 129.143 52.3223 129.143 51.4473H131.672C131.717 52.2949 132.055 52.9694 132.684 53.4707C133.322 53.9629 134.16 54.209 135.199 54.209C136.156 54.209 136.922 54.0176 137.496 53.6348C138.079 53.2428 138.371 52.7233 138.371 52.0762ZM144.25 54.6738C144.25 54.2363 144.378 53.8717 144.633 53.5801C144.897 53.2884 145.289 53.1426 145.809 53.1426C146.328 53.1426 146.72 53.2884 146.984 53.5801C147.258 53.8717 147.395 54.2363 147.395 54.6738C147.395 55.0931 147.258 55.444 146.984 55.7266C146.72 56.0091 146.328 56.1504 145.809 56.1504C145.289 56.1504 144.897 56.0091 144.633 55.7266C144.378 55.444 144.25 55.0931 144.25 54.6738Z" fill="black"/>
</svg>
